<?xml version="1.0" encoding="UTF-8" standalone="no"?><!DOCTYPE svg PUBLIC "-//W3C//DTD SVG 1.1//EN" "http://www.w3.org/Graphics/SVG/1.1/DTD/svg11.dtd"><svg width="100%" height="100%" viewBox="0 0 1505 1505" version="1.1" xmlns="http://www.w3.org/2000/svg" xmlns:xlink="http://www.w3.org/1999/xlink" xml:space="preserve" xmlns:serif="http://www.serif.com/" style="fill-rule:evenodd;clip-rule:evenodd;stroke-linejoin:round;stroke-miterlimit:2;"><path d="M323.038,386.504c10.463,9.318 19.693,19.172 27.962,30.496c0.415,0.565 0.829,1.13 1.256,1.712c19.852,27.429 30.864,58.563 35.226,91.914c6.241,47.235 16.275,94.195 31.518,139.374c0.385,1.147 0.77,2.295 1.166,3.477c16.682,49.303 39.842,96.081 72.834,136.523c0.437,0.541 0.874,1.082 1.324,1.64c11.554,14.238 24.569,28.067 39.075,39.317c2.538,1.993 4.95,4.079 7.37,6.211c13.601,11.933 28.463,22.103 43.482,32.145c0.621,0.416 1.242,0.832 1.882,1.261c13.182,8.816 26.336,17.179 40.93,23.489c1.163,0.507 2.325,1.015 3.523,1.538c74.419,32.103 155.95,35.163 231.745,5.365c3.232,-1.301 6.453,-2.626 9.669,-3.965c1.03,-0.428 2.061,-0.856 3.123,-1.297c15.318,-6.457 29.127,-14.395 42.877,-23.703c1.42,-0.948 2.841,-1.896 4.262,-2.844c14.395,-9.688 28.493,-19.942 41.738,-31.156c1.043,-0.869 2.086,-1.737 3.129,-2.605c16.531,-13.801 32.574,-28.399 45.871,-45.395c0.903,-1.094 1.81,-2.185 2.719,-3.273c53.847,-64.963 80.098,-150.551 103.344,-279.227c6.336,-48.819 30.845,-95.348 69.75,-126.125c2.372,-1.826 4.77,-3.61 7.188,-5.375c0.565,-0.415 1.13,-0.829 1.712,-1.256c41.215,-29.829 93.311,-41.747 143.531,-34.227c39.609,6.742 74.863,24.771 103.757,52.483c0.537,0.509 1.073,1.019 1.626,1.543c32.226,30.721 55.412,76.715 56.535,121.735c0.02,1.528 0.034,3.056 0.042,4.585c0.006,0.831 0.011,1.663 0.017,2.52c0.009,1.756 0.016,3.511 0.02,5.267c0.01,2.618 0.041,5.235 0.072,7.852c0.094,14.937 -1.564,29.57 -5.562,43.998c-0.316,1.158 -0.316,1.158 -0.638,2.34c-8.835,31.432 -24.749,58.659 -46.8,82.597c-0.51,0.555 -1.02,1.11 -1.546,1.682c-13.91,14.808 -30.899,26.412 -48.766,35.881c-0.695,0.37 -1.391,0.739 -2.107,1.12c-19.623,10.243 -40.591,15.46 -62.111,19.955c-33.072,6.911 -64.986,16.994 -95.782,30.925c-1.494,0.675 -1.494,0.675 -3.019,1.363c-33.313,15.185 -63.948,35.121 -91.981,58.637c-0.947,0.762 -1.895,1.524 -2.871,2.309c-8.649,7.06 -16.538,14.884 -24.441,22.754c-0.56,0.554 -1.119,1.109 -1.696,1.68c-6.35,6.303 -12.352,12.688 -17.929,19.7c-1.993,2.472 -4.065,4.836 -6.195,7.19c-3.814,4.251 -7.324,8.669 -10.742,13.242c-0.631,0.844 -1.262,1.687 -1.911,2.557c-13.132,17.78 -25.198,36.41 -36.214,55.568c-0.406,0.702 -0.811,1.404 -1.229,2.128c-3.013,5.243 -5.915,10.542 -8.771,15.872c-0.55,1.027 -1.101,2.053 -1.667,3.111c-25.979,48.754 -45.664,100.275 -62.647,152.772c-0.659,2.034 -1.321,4.067 -1.985,6.1c-8.69,26.678 -16.178,53.754 -22.958,80.978c-8.888,35.657 -22.595,67.592 -47.723,94.832c-1.759,1.922 -3.428,3.884 -5.082,5.895c-3.309,3.863 -7.023,7.076 -10.938,10.312c-0.517,0.435 -1.034,0.869 -1.567,1.317c-9.309,7.804 -18.933,14.578 -29.433,20.683c-0.602,0.355 -1.205,0.711 -1.826,1.077c-42.708,24.957 -96.399,30.316 -143.892,18.035c-30.176,-8.284 -57.076,-22.877 -80.075,-44.092c-1.922,-1.759 -3.884,-3.428 -5.895,-5.082c-3.863,-3.309 -7.073,-7.025 -10.312,-10.938c-0.429,-0.506 -0.859,-1.013 -1.301,-1.535c-22.437,-26.522 -35.283,-57.13 -43.541,-90.611c-1.47,-5.943 -2.989,-11.873 -4.509,-17.804c-0.305,-1.193 -0.611,-2.385 -0.925,-3.614c-23.619,-91.657 -56.989,-185.26 -145.415,-313.918c-1.275,-1.48 -2.509,-2.995 -3.742,-4.511c-7.027,-8.604 -14.798,-16.456 -22.629,-24.32c-0.555,-0.56 -1.109,-1.12 -1.681,-1.696c-7.097,-7.149 -14.366,-13.718 -22.257,-19.991c-1.102,-0.935 -2.198,-1.876 -3.285,-2.828c-19.388,-16.906 -41.286,-30.688 -63.715,-43.172c-0.804,-0.448 -1.607,-0.897 -2.435,-1.359c-42.209,-23.345 -88.293,-37.065 -135.303,-46.84c-26.258,-5.535 -51.612,-15.679 -73.262,-31.801c-0.533,-0.395 -1.066,-0.79 -1.616,-1.196c-6.914,-5.157 -13.481,-10.644 -19.822,-16.491c-0.555,-0.51 -1.11,-1.02 -1.681,-1.546c-30.721,-28.854 -49.646,-69.493 -55.881,-110.767c-0.174,-1.069 -0.349,-2.139 -0.528,-3.24c-0.52,-4.142 -0.669,-8.18 -0.71,-12.35c-0.01,-0.813 -0.02,-1.626 -0.03,-2.464c-0.172,-17.984 -0.032,-35.372 4.268,-52.946c0.214,-0.896 0.429,-1.792 0.649,-2.716c11.935,-48.556 42.692,-90.924 84.976,-117.597c2.115,-1.246 4.241,-2.475 6.375,-3.688c1.121,-0.654 2.243,-1.307 3.398,-1.98c69.933,-39.752 160.733,-27.735 220.64,24.485Z" style="fill:#4fc08d;fill-rule:nonzero;"/><path d="M741.688,146.762c0.812,-0.01 1.624,-0.019 2.46,-0.03c17.979,-0.171 35.264,0.079 52.852,4.268c0.772,0.171 1.545,0.343 2.341,0.519c34.96,7.86 64.903,27.225 90.659,51.481c0.66,0.617 1.32,1.235 2,1.871c5.146,4.967 9.642,10.467 14,16.129c0.455,0.59 0.911,1.18 1.38,1.788c30.476,40.021 43.775,91.459 37.374,141.298c-5.713,39.385 -21.611,75.312 -48.676,104.648c-1.896,2.067 -3.708,4.183 -5.516,6.328c-29.162,33.121 -76.618,52.923 -119.86,56.77c-53.053,3.292 -104.344,-11.511 -144.703,-46.832c-7.108,-6.284 -14.029,-12.602 -20,-20c-0.794,-0.945 -1.588,-1.89 -2.406,-2.863c-32.128,-38.888 -47.71,-89.92 -43.094,-140.129c4.705,-44.255 22.335,-83.321 52.5,-116.008c0.701,-0.761 0.701,-0.761 1.417,-1.538c7.191,-7.708 15.159,-14.18 23.583,-20.462c0.83,-0.625 1.66,-1.25 2.516,-1.895c14.092,-10.233 29.31,-17.77 45.484,-24.105c0.662,-0.262 1.324,-0.523 2.005,-0.792c16.75,-6.48 35.724,-10.266 53.682,-10.446Z" style="fill:#007acc;fill-rule:nonzero;"/></svg>